<?xml version="1.0" encoding="utf-8"?>
<!-- Generator: Adobe Illustrator 27.0.0, SVG Export Plug-In . SVG Version: 6.00 Build 0)  -->
<svg version="1.1" id="Ebene_1" xmlns="http://www.w3.org/2000/svg" xmlns:xlink="http://www.w3.org/1999/xlink" x="0px" y="0px"
	 viewBox="0 0 141.7 77.4" style="enable-background:new 0 0 141.7 77.4;" xml:space="preserve">
<style type="text/css">
	.st0{
		fill:transparent;
		

	}

	@keyframes animate {
		0% {
			stroke-dasharray: 200;
			stroke-dashoffset: 200;
		}
		50% {
			stroke-dasharray: 200;
			stroke-dashoffset: 0;
		}
		70% {
			fill: transparent;
		}
		100% {
			fill: #ffffff;
			stroke-dasharray: 200;
			stroke-dashoffset: 0;
		}
	}

	@keyframes fill {
		0% {
			fill:transparent;
		}
		100% {
			fill:#FFFFFF;
		}
	}


	path, polygon{
		stroke: #FFFFFF;
		stroke-width: .5;
		stroke-dasharray: 200;
		stroke-dashoffset: 200;
		animation: animate 2s linear forwards;
	}


</style>
<polygon class="st0" points="61.7,18.9 6.1,18.9 82,36.4 "/>
<g>
	<path class="st0" d="M74.6,26.7l9.1,7.9c3.5,1,51.9-15.7,51.9-15.7h-44C84.9,18.9,74.6,26.7,74.6,26.7"/>
	<path class="st0" d="M71.8,6.4c7.7,0,14.5,4,18.4,10.1h3.5C89.6,8.6,81.3,3.3,71.8,3.3c-9.5,0-17.7,5.3-21.9,13.1h3.6
		C57.4,10.4,64.1,6.4,71.8,6.4"/>
	<path class="st0" d="M92.5,35.3c-2.9,8.6-11.1,14.8-20.7,14.8c-10.9,0-19.9-8-21.6-18.4l-3.2-0.7C48.4,43.4,59,53.1,71.8,53.1
		c11.7,0,21.4-8,24.1-18.9L92.5,35.3z"/>
</g>
<g>
	<path class="st0" d="M20.3,74.1h-2.6l-2-8.1h0l-2,8.1H11L7.9,62.3h2.6l1.9,8.1h0l2.1-8.1h2.4l2,8.2h0l1.9-8.2h2.6L20.3,74.1z"/>
	<path class="st0" d="M35.8,62.3h2.7l4.4,11.8h-2.7l-0.9-2.6h-4.4l-0.9,2.6h-2.6L35.8,62.3z M35.5,69.5h3.1l-1.5-4.4h0L35.5,69.5z"
		/>
	<path class="st0" d="M53.1,62.3h2.6v9.7h5.8v2.2h-8.4V62.3z"/>
	<path class="st0" d="M72.1,62.3h5.3c3,0,4.1,1.9,4.1,3.8s-1.1,3.8-4.1,3.8h-2.7v4.3h-2.6V62.3z M74.7,67.8h2c1.2,0,2.3-0.3,2.3-1.8
		c0-1.5-1.1-1.8-2.3-1.8h-2V67.8z"/>
</g>
<g>
	<path class="st0" d="M95.9,62.3h1.3l4.6,11.8h-1.2l-1.4-3.7h-5.4l-1.4,3.7h-1.2L95.9,62.3z M94.1,69.5h4.7l-2.3-6.1L94.1,69.5z"/>
	<path class="st0" d="M112.1,62.3h1.1v11.8h-1.1V62.3z"/>
	<path class="st0" d="M124.9,62.3h5.4c2,0,3.6,1,3.6,3.1c0,1.5-0.8,2.7-2.3,3v0c1.5,0.2,2,1.3,2.1,2.7c0,0.8,0,2.4,0.5,3H133
		c-0.3-0.5-0.3-1.3-0.3-1.8c-0.1-1.7-0.2-3.5-2.4-3.4H126v5.3h-1.1V62.3z M126,67.9h4.2c1.4,0,2.6-0.9,2.6-2.3s-0.9-2.4-2.6-2.4H126
		V67.9z"/>
</g>
</svg>
