<svg enable-background="new 0 0 141.73 77.44" viewBox="0 0 141.73 77.44" xmlns="http://www.w3.org/2000/svg"><g fill="#003c64"><path d="m60.86 17.02h-60.86l83 19.16z"/><path d="m74.96 25.59 9.99 8.64c3.8 1.1 56.79-17.2 56.79-17.2h-48.19c-7.32 0-18.59 8.56-18.59 8.56"/><path d="m71.93 3.33c8.46 0 15.87 4.4 20.13 11.03h3.88c-4.6-8.55-13.63-14.36-24.01-14.36-10.35 0-19.35 5.77-23.96 14.28h3.89c4.25-6.59 11.64-10.95 20.07-10.95"/><path d="m94.54 34.97c-3.22 9.41-12.11 16.18-22.61 16.18-11.92 0-21.78-8.74-23.59-20.15l-3.48-.8c1.47 13.65 13.03 24.28 27.07 24.28 12.77 0 23.45-8.79 26.4-20.65z"/><path d="m15.52 77.44h-2.83l-2.2-8.83h-.04l-2.16 8.83h-2.88l-3.44-12.97h2.85l2.05 8.83h.04l2.25-8.83h2.67l2.22 8.93h.04l2.12-8.93h2.8z"/><path d="m32.45 64.47h2.92l4.85 12.96h-2.96l-.98-2.89h-4.85l-1.02 2.89h-2.89zm-.28 7.96h3.36l-1.63-4.76h-.04z"/><path d="m51.39 64.47h2.85v10.57h6.32v2.4h-9.17z"/><path d="m72.2 64.47h5.85c3.23 0 4.49 2.05 4.49 4.16s-1.25 4.16-4.49 4.16h-3v4.65h-2.85zm2.85 6.1h2.22c1.33 0 2.51-.29 2.51-1.94s-1.18-1.94-2.51-1.94h-2.22z"/></g><path d="m98.24 64.47h1.38l5.08 12.96h-1.33l-1.58-4.03h-5.9l-1.56 4.03h-1.33zm-1.96 7.88h5.1l-2.51-6.65z" fill="#be3232"/><path d="m116.02 64.47h1.23v12.96h-1.23z" fill="#be3232"/><path d="m130 64.47h5.94c2.14 0 3.94 1.04 3.94 3.38 0 1.63-.85 2.98-2.52 3.3v.04c1.69.22 2.18 1.38 2.27 2.92.05.89.05 2.67.6 3.32h-1.36c-.31-.51-.31-1.47-.35-2.02-.11-1.82-.25-3.83-2.6-3.74h-4.68v5.76h-1.24zm1.23 6.16h4.61c1.51 0 2.8-.94 2.8-2.52s-.94-2.58-2.8-2.58h-4.61z" fill="#be3232"/></svg>